<svg width="237" height="156" viewBox="0 0 237 156" fill="none" xmlns="http://www.w3.org/2000/svg">
<path d="M195 50H4L9.96875 65H182.52L195 50Z" fill="#A7750C"/>
<line x1="4" y1="46" x2="188" y2="46" stroke="#8B630D" stroke-width="8"/>
<path d="M185.5 65H9.5L15 90.5H174L185.5 65Z" fill="#A7750C"/>
<line x1="6" y1="69" x2="186" y2="69" stroke="#8B630D" stroke-width="8"/>
<path d="M174 97H20L46 123H148L174 97Z" fill="#A7750C"/>
<line x1="18" y1="94" x2="173" y2="94" stroke="#8B630D" stroke-width="8"/>
<path d="M232.371 14.4283H194.414V4.63029C194.414 2.07374 192.341 0.00138092 189.785 0.00138092H89.8008C87.2447 0.00138092 85.1719 2.07374 85.1719 4.63029C85.1719 7.18683 87.2447 9.25919 89.8008 9.25919H185.156V44.7472C185.156 75.9219 168.512 104.896 141.636 120.661H52.7779C25.902 104.897 9.25781 75.9219 9.25781 44.7476V9.25966H40.2715C42.8276 9.25966 44.9004 7.1873 44.9004 4.63075C44.9004 2.07421 42.8276 0.00184709 40.2715 0.00184709H4.62891C2.07282 0.00184709 0 2.07421 0 4.63075V44.7476C0 62.2449 4.70297 79.4015 13.6007 94.3616C19.6011 104.451 27.3869 113.361 36.5045 120.662H4.62891C2.07282 120.662 0 122.734 0 125.291C0 142.137 13.7048 155.841 30.5508 155.841H174.973C191.819 155.841 205.523 142.137 205.523 125.291C205.523 122.734 203.451 120.662 200.895 120.662H157.91C166.301 113.942 173.561 105.857 179.342 96.7455H192.408C216.996 96.7455 237 76.7417 237 52.1539V19.0572C237 16.5007 234.928 14.4283 232.371 14.4283ZM195.759 129.92C193.64 139.442 185.124 146.584 174.973 146.584H30.5508C20.3991 146.584 11.8843 139.442 9.76468 129.92H51.5378H142.876H195.759ZM194.414 44.7476V42.2017H209.227V52.1539C209.227 61.4274 201.682 68.9721 192.408 68.9721H191.357C193.378 61.1002 194.414 52.9616 194.414 44.7476ZM227.742 52.1539C227.742 71.6369 211.891 87.4877 192.408 87.4877H184.53C186.008 84.4692 187.328 81.3789 188.482 78.2299H192.408C206.787 78.2299 218.484 66.5322 218.484 52.1539V37.5728C218.484 35.0163 216.412 32.9439 213.855 32.9439H194.414V23.6861H227.742V52.1539Z" fill="#F78FB3" fill-opacity="0.88"/>
<path d="M69.5632 1.35627C68.7022 0.49529 67.5079 0 66.2905 0C65.0731 0 63.8789 0.49529 63.0179 1.35627C62.1574 2.22187 61.6616 3.4115 61.6616 4.62891C61.6616 5.84631 62.1569 7.04057 63.0179 7.90617C63.8789 8.76715 65.0731 9.25781 66.2905 9.25781C67.5079 9.25781 68.7022 8.76715 69.5632 7.90617C70.4283 7.04057 70.9194 5.85094 70.9194 4.62891C70.9194 3.4115 70.4283 2.21724 69.5632 1.35627Z" fill="#F78FB3" fill-opacity="0.88"/>
<path d="M167.566 40.1187C165.01 40.1187 162.937 42.1911 162.937 44.7476C162.937 61.9297 155.968 78.8155 143.816 91.0751C142.017 92.8906 142.03 95.8216 143.846 97.6213C144.748 98.5161 145.926 98.9628 147.104 98.9628C148.296 98.9623 149.487 98.505 150.392 97.5917C164.248 83.6124 172.195 64.3515 172.195 44.7476C172.195 42.1911 170.122 40.1187 167.566 40.1187Z" fill="#F78FB3" fill-opacity="0.88"/>
<path d="M136.037 103.639C134.78 101.412 131.957 100.625 129.731 101.881L129.625 101.941C127.398 103.197 126.612 106.02 127.867 108.247C128.718 109.755 130.287 110.603 131.903 110.603C132.674 110.603 133.455 110.41 134.173 110.005L134.279 109.945C136.506 108.689 137.292 105.865 136.037 103.639Z" fill="#F78FB3" fill-opacity="0.88"/>
</svg>
